<mxfile host="app.diagrams.net" modified="2022-06-30T15:08:50.247Z" agent="5.0 (Windows NT 10.0; Win64; x64) AppleWebKit/537.36 (KHTML, like Gecko) Chrome/103.0.0.0 Safari/537.36" etag="Kck96UOe6wzjiYrb5B_w" version="20.0.4" type="github" pages="2">
  <diagram id="1h9TEY_b_fnDwK1muNaq" name="Page-1">
    <mxGraphModel dx="1038" dy="547" grid="1" gridSize="10" guides="1" tooltips="1" connect="1" arrows="1" fold="1" page="1" pageScale="1" pageWidth="827" pageHeight="1169" math="0" shadow="0">
      <root>
        <mxCell id="0" />
        <mxCell id="1" parent="0" />
        <mxCell id="KcXHc72Vn2-ai67Imb00-4" value="&lt;ul style=&quot;box-sizing: border-box; margin: 0px; list-style: none; padding: 0px; color: rgb(44, 45, 48); font-family: Roboto, &amp;quot;San Francisco&amp;quot;, &amp;quot;Helvetica Neue&amp;quot;, Helvetica, Arial; font-size: 15px; text-align: start; background-color: rgb(255, 255, 255);&quot;&gt;&lt;li style=&quot;box-sizing: border-box;&quot;&gt;диаграмма взаимодействия (последовательности);&lt;/li&gt;&lt;/ul&gt;" style="text;html=1;strokeColor=none;fillColor=none;align=center;verticalAlign=middle;whiteSpace=wrap;rounded=0;" vertex="1" parent="1">
          <mxGeometry x="447" width="380" height="30" as="geometry" />
        </mxCell>
        <mxCell id="KcXHc72Vn2-ai67Imb00-5" value="" style="shape=umlLifeline;participant=umlActor;perimeter=lifelinePerimeter;whiteSpace=wrap;html=1;container=1;collapsible=0;recursiveResize=0;verticalAlign=top;spacingTop=36;outlineConnect=0;size=70;" vertex="1" parent="1">
          <mxGeometry x="90" y="50" width="40" height="440" as="geometry" />
        </mxCell>
        <mxCell id="4TjQuTzdKP9Q92WX5hda-6" value="ввод данных" style="html=1;verticalAlign=bottom;endArrow=block;rounded=0;entryX=-0.3;entryY=0.216;entryDx=0;entryDy=0;entryPerimeter=0;" edge="1" parent="KcXHc72Vn2-ai67Imb00-5" target="4TjQuTzdKP9Q92WX5hda-7">
          <mxGeometry width="80" relative="1" as="geometry">
            <mxPoint x="20" y="170" as="sourcePoint" />
            <mxPoint x="90" y="170" as="targetPoint" />
          </mxGeometry>
        </mxCell>
        <mxCell id="4TjQuTzdKP9Q92WX5hda-15" value="" style="html=1;points=[];perimeter=orthogonalPerimeter;" vertex="1" parent="KcXHc72Vn2-ai67Imb00-5">
          <mxGeometry x="15" y="90" width="10" height="350" as="geometry" />
        </mxCell>
        <mxCell id="4TjQuTzdKP9Q92WX5hda-18" value="Выбор билета и ввод карты оплаты" style="html=1;verticalAlign=bottom;endArrow=block;rounded=0;" edge="1" parent="KcXHc72Vn2-ai67Imb00-5" target="KcXHc72Vn2-ai67Imb00-6">
          <mxGeometry width="80" relative="1" as="geometry">
            <mxPoint x="25" y="280" as="sourcePoint" />
            <mxPoint x="105" y="280" as="targetPoint" />
          </mxGeometry>
        </mxCell>
        <mxCell id="KcXHc72Vn2-ai67Imb00-6" value="Терминал заказа билетов" style="shape=umlLifeline;perimeter=lifelinePerimeter;whiteSpace=wrap;html=1;container=1;collapsible=0;recursiveResize=0;outlineConnect=0;" vertex="1" parent="1">
          <mxGeometry x="334" y="50" width="160" height="430" as="geometry" />
        </mxCell>
        <mxCell id="4TjQuTzdKP9Q92WX5hda-4" value="" style="html=1;points=[];perimeter=orthogonalPerimeter;" vertex="1" parent="KcXHc72Vn2-ai67Imb00-6">
          <mxGeometry x="85" y="120" width="10" height="20" as="geometry" />
        </mxCell>
        <mxCell id="4TjQuTzdKP9Q92WX5hda-5" value="Вывод формы ввода данных: дата, маршрут" style="edgeStyle=orthogonalEdgeStyle;html=1;align=left;spacingLeft=2;endArrow=block;rounded=0;entryX=1;entryY=0;" edge="1" target="4TjQuTzdKP9Q92WX5hda-4" parent="KcXHc72Vn2-ai67Imb00-6">
          <mxGeometry relative="1" as="geometry">
            <mxPoint x="85" y="100" as="sourcePoint" />
            <Array as="points">
              <mxPoint x="115" y="100" />
            </Array>
          </mxGeometry>
        </mxCell>
        <mxCell id="4TjQuTzdKP9Q92WX5hda-7" value="" style="html=1;points=[];perimeter=orthogonalPerimeter;" vertex="1" parent="KcXHc72Vn2-ai67Imb00-6">
          <mxGeometry x="75" y="100" width="10" height="330" as="geometry" />
        </mxCell>
        <mxCell id="4TjQuTzdKP9Q92WX5hda-8" value="запрос в базу данных" style="html=1;verticalAlign=bottom;endArrow=block;rounded=0;" edge="1" parent="KcXHc72Vn2-ai67Imb00-6" target="KcXHc72Vn2-ai67Imb00-7">
          <mxGeometry width="80" relative="1" as="geometry">
            <mxPoint x="85" y="190" as="sourcePoint" />
            <mxPoint x="165" y="190" as="targetPoint" />
          </mxGeometry>
        </mxCell>
        <mxCell id="4TjQuTzdKP9Q92WX5hda-11" value="" style="html=1;points=[];perimeter=orthogonalPerimeter;" vertex="1" parent="KcXHc72Vn2-ai67Imb00-6">
          <mxGeometry x="85" y="240" width="10" height="20" as="geometry" />
        </mxCell>
        <mxCell id="4TjQuTzdKP9Q92WX5hda-12" value="Вывод списка доступных билетов" style="edgeStyle=orthogonalEdgeStyle;html=1;align=left;spacingLeft=2;endArrow=block;rounded=0;entryX=1;entryY=0;" edge="1" target="4TjQuTzdKP9Q92WX5hda-11" parent="KcXHc72Vn2-ai67Imb00-6">
          <mxGeometry relative="1" as="geometry">
            <mxPoint x="86" y="230" as="sourcePoint" />
            <Array as="points">
              <mxPoint x="90" y="230" />
              <mxPoint x="120" y="230" />
              <mxPoint x="120" y="240" />
            </Array>
          </mxGeometry>
        </mxCell>
        <mxCell id="KcXHc72Vn2-ai67Imb00-7" value="Сервер с базой данных билетов" style="shape=umlLifeline;perimeter=lifelinePerimeter;whiteSpace=wrap;html=1;container=1;collapsible=0;recursiveResize=0;outlineConnect=0;" vertex="1" parent="1">
          <mxGeometry x="620" y="50" width="170" height="510" as="geometry" />
        </mxCell>
        <mxCell id="4TjQuTzdKP9Q92WX5hda-1" value="Выбор меню: просмотр доступных билетов" style="html=1;verticalAlign=bottom;endArrow=block;rounded=0;" edge="1" parent="1" target="KcXHc72Vn2-ai67Imb00-6">
          <mxGeometry width="80" relative="1" as="geometry">
            <mxPoint x="110" y="150" as="sourcePoint" />
            <mxPoint x="190" y="150" as="targetPoint" />
          </mxGeometry>
        </mxCell>
        <mxCell id="4TjQuTzdKP9Q92WX5hda-9" value="return" style="html=1;verticalAlign=bottom;endArrow=open;dashed=1;endSize=8;rounded=0;" edge="1" parent="1" source="KcXHc72Vn2-ai67Imb00-7">
          <mxGeometry relative="1" as="geometry">
            <mxPoint x="699" y="264.5" as="sourcePoint" />
            <mxPoint x="419" y="264.5" as="targetPoint" />
          </mxGeometry>
        </mxCell>
      </root>
    </mxGraphModel>
  </diagram>
  <diagram id="KhIlX4cuZSyGqHAULrGX" name="Page-2">
    <mxGraphModel dx="1038" dy="547" grid="1" gridSize="10" guides="1" tooltips="1" connect="1" arrows="1" fold="1" page="1" pageScale="1" pageWidth="827" pageHeight="1169" math="0" shadow="0">
      <root>
        <mxCell id="0" />
        <mxCell id="1" parent="0" />
        <mxCell id="7pxntjC6cm_HCuY9kC92-1" value="&lt;ul style=&quot;box-sizing: border-box; margin: 0px; list-style: none; padding: 0px; color: rgb(44, 45, 48); font-family: Roboto, &amp;quot;San Francisco&amp;quot;, &amp;quot;Helvetica Neue&amp;quot;, Helvetica, Arial; font-size: 15px; text-align: start; background-color: rgb(255, 255, 255);&quot;&gt;&lt;li style=&quot;box-sizing: border-box;&quot;&gt;диаграмма вариантов использования (прецедентов);&lt;/li&gt;&lt;/ul&gt;" style="text;html=1;strokeColor=none;fillColor=none;align=center;verticalAlign=middle;whiteSpace=wrap;rounded=0;" vertex="1" parent="1">
          <mxGeometry x="400" width="420" height="30" as="geometry" />
        </mxCell>
      </root>
    </mxGraphModel>
  </diagram>
</mxfile>
